<svg xmlns="http://www.w3.org/2000/svg" width="25" height="25" viewBox="0 0 25 25">
  <g id="notification" transform="translate(-105 -750)">
    <g id="notification-alert-svgrepo-com" transform="translate(104.753 750)">
      <rect id="view-box" width="25" height="25" transform="translate(0.247)" fill="none"/>
      <path id="Shape" d="M6.468,18.327v-.539H2.426A2.429,2.429,0,0,1,0,15.363v-.412a2.74,2.74,0,0,1,1.525-2.468A1.344,1.344,0,0,0,2.264,11.4L2.745,6.1a6.713,6.713,0,0,1,8.7-5.8,5.9,5.9,0,0,0-.685,1.481,5.168,5.168,0,0,0-1.329-.172A5.067,5.067,0,0,0,4.361,6.253l-.48,5.291a2.953,2.953,0,0,1-1.629,2.385,1.137,1.137,0,0,0-.635,1.023v.412a.81.81,0,0,0,.809.807H16.441a.81.81,0,0,0,.809-.809v-.412a1.135,1.135,0,0,0-.632-1.022,2.953,2.953,0,0,1-1.632-2.385l-.216-2.35a5.9,5.9,0,0,0,1.645.238l.179,1.964a1.358,1.358,0,0,0,.74,1.083,2.746,2.746,0,0,1,1.529,2.469v.412a2.428,2.428,0,0,1-2.426,2.426H12.4v.541a2.965,2.965,0,1,1-5.929,0Zm1.617,0a1.348,1.348,0,1,0,2.7,0v-.539h-2.7Zm8.136-8.9a2.72,2.72,0,0,1-1.452-.238l-.263-2.941c-.115-1.334-2.721-3.6-3.744-4.463A3.635,3.635,0,0,1,11.447.308c1.56,1.137,4.5,3.873,4.67,5.8l.323,3.328h-.216Z" transform="translate(2.978 2.155)" fill="#d8d8d8"/>
    </g>
  </g>
</svg>
